<svg width="40" height="40" viewBox="0 0 46 48" fill="none" xmlns="http://www.w3.org/2000/svg">
    <path
        d="M23.0697 11.0049C18.9291 0.315548 9.28352 -0.529781 4.78385 4.02409C1.12189 7.65083 -0.625322 16.7313 2.70156 24.9937C8.46975 39.2007 23.0697 46.8087 23.0697 46.8087C23.0697 46.8087 37.6697 39.3371 43.4379 25.1301C46.7648 16.9495 45.0176 7.89625 41.3556 4.16044C36.8559 -0.529781 27.2104 0.315548 23.0697 11.0049Z"
        stroke="#29DA9A8A" stroke-width="1.5" stroke-linecap="round" stroke-linejoin="round" />
    <path
        d="M23.0697 11.0049C18.9291 0.315548 9.28352 -0.529781 4.78385 4.02409C1.12189 7.65083 -0.625322 16.7313 2.70156 24.9937C8.46975 39.2007 23.0697 46.8087 23.0697 46.8087C23.0697 46.8087 37.6697 39.3371 43.4379 25.1301C46.7648 16.9495 45.0176 7.89625 41.3556 4.16044C36.8559 -0.529781 27.2104 0.315548 23.0697 11.0049Z"
        stroke="#29DA9A8A" stroke-width="1.13" stroke-linecap="round" stroke-linejoin="round" />
    <path d="M3.51709 25.0366H14.0021L20.7521 32.9116L27.5021 17.1616L32.0021 25.0366H42.4871" stroke="#29DA9A8A"
        stroke-width="2" stroke-linecap="round" stroke-linejoin="round" />
    <path d="M3.51709 25.0366H14.0021L20.7521 32.9116L27.5021 17.1616L32.0021 25.0366H42.4871" stroke="#29DA9A8A"
        stroke-width="2" stroke-linecap="round" stroke-linejoin="round" />
</svg>