<svg width="64" height="55" viewBox="0 0 64 55" fill="none" xmlns="http://www.w3.org/2000/svg">
<path d="M1.22959 49.3007C4.71972 53.5375 19.891 56.866 27.0565 48.9332C34.8089 52.0832 47.5958 51.1067 58.0044 46.1717C59.4498 45.4866 60.8212 44.6203 61.6582 43.405C63.5515 40.6618 63.5978 36.8556 60.1448 31.2407C54.3845 19.0213 44.0284 8.29821 39.8464 3.98533C38.9878 3.31858 33.5086 2.37358 30.1698 1.46533C28.6935 1.07946 25.9477 0.819582 22.6614 4.49983C21.1017 6.24546 14.0257 10.5295 23.0043 13.4117C24.3941 13.7136 25.4196 14.2675 31.7636 13.2805C32.5913 13.1597 34.6545 13.2805 36.1092 15.4513L39.1453 19.1421C39.4306 19.484 39.6111 19.881 39.6704 20.2971C40.2016 24.2346 40.1831 29.1591 42.7652 31.6528C38.7778 29.2037 28.3599 26.2926 20.5087 34.5745M1.18018 29.9676C4.71421 27.2898 9.22 25.7205 13.9487 25.5204C18.6775 25.3203 23.3444 26.5015 27.1739 28.8677" stroke="#38E4AE" stroke-opacity="0.13" stroke-width="1.5" stroke-linecap="round" stroke-linejoin="round"/>
<path d="M1.22959 49.3007C4.71972 53.5375 19.891 56.866 27.0565 48.9332C34.8089 52.0832 47.5958 51.1067 58.0044 46.1717C59.4498 45.4866 60.8212 44.6203 61.6582 43.405C63.5515 40.6618 63.5978 36.8556 60.1448 31.2407C54.3845 19.0213 44.0284 8.29821 39.8464 3.98533C38.9878 3.31858 33.5086 2.37358 30.1698 1.46533C28.6935 1.07946 25.9477 0.819582 22.6614 4.49983C21.1017 6.24546 14.0257 10.5295 23.0043 13.4117C24.3941 13.7136 25.4196 14.2675 31.7636 13.2805C32.5913 13.1597 34.6545 13.2805 36.1092 15.4513L39.1453 19.1421C39.4306 19.484 39.6111 19.881 39.6704 20.2971C40.2016 24.2346 40.1831 29.1591 42.7652 31.6528C38.7778 29.2037 28.3599 26.2926 20.5087 34.5745M1.18018 29.9676C4.71421 27.2898 9.22 25.7205 13.9487 25.5204C18.6775 25.3203 23.3444 26.5015 27.1739 28.8677" stroke="#343E3D" stroke-opacity="0.2" stroke-width="1.5" stroke-linecap="round" stroke-linejoin="round"/>
</svg>
