<svg width="59" height="56" viewBox="0 0 59 56" fill="none" xmlns="http://www.w3.org/2000/svg">
    <path
        d="M29.5 0.65625C23.7056 0.65625 18.0414 2.25993 13.2235 5.2645C8.40569 8.26907 4.65064 12.5396 2.43323 17.536C0.215818 22.5324 -0.364357 28.0303 0.76607 33.3345C1.8965 38.6387 4.68675 43.5109 8.78399 47.3349C12.8812 51.159 18.1014 53.7633 23.7845 54.8183C29.4675 55.8734 35.3581 55.3319 40.7114 53.2623C46.0647 51.1927 50.6403 47.688 53.8595 43.1914C57.0787 38.6947 58.7969 33.4081 58.7969 28C58.7884 20.7504 55.699 13.8001 50.2066 8.67384C44.7142 3.54762 37.2674 0.664211 29.5 0.65625ZM29.5 53.1562C24.1692 53.1562 18.9581 51.6809 14.5257 48.9167C10.0932 46.1525 6.63859 42.2236 4.59857 37.6269C2.55855 33.0302 2.02479 27.9721 3.06478 23.0923C4.10478 18.2124 6.67181 13.73 10.4413 10.2118C14.2107 6.69368 19.0133 4.29778 24.2417 3.32712C29.4701 2.35646 34.8895 2.85464 39.8145 4.75866C44.7396 6.66267 48.9491 9.88701 51.9107 14.0239C54.8724 18.1609 56.4531 23.0246 56.4531 28C56.4454 34.6696 53.6032 41.064 48.5502 45.7802C43.4972 50.4963 36.646 53.149 29.5 53.1562ZM47.0781 28C47.0781 28.2901 46.9547 28.5683 46.7349 28.7734C46.5151 28.9785 46.2171 29.0937 45.9063 29.0937H29.5C29.1892 29.0937 28.8911 28.9785 28.6714 28.7734C28.4516 28.5683 28.3281 28.2901 28.3281 28V12.6875C28.3281 12.3974 28.4516 12.1192 28.6714 11.9141C28.8911 11.709 29.1892 11.5937 29.5 11.5937C29.8108 11.5937 30.1089 11.709 30.3287 11.9141C30.5484 12.1192 30.6719 12.3974 30.6719 12.6875V26.9062H45.9063C46.2171 26.9062 46.5151 27.0215 46.7349 27.2266C46.9547 27.4317 47.0781 27.7099 47.0781 28Z"
        fill="#29DA9A8A" />
    <path
        d="M29.5 0.65625C23.7056 0.65625 18.0414 2.25993 13.2235 5.2645C8.40569 8.26907 4.65064 12.5396 2.43323 17.536C0.215818 22.5324 -0.364357 28.0303 0.76607 33.3345C1.8965 38.6387 4.68675 43.5109 8.78399 47.3349C12.8812 51.159 18.1014 53.7633 23.7845 54.8183C29.4675 55.8734 35.3581 55.3319 40.7114 53.2623C46.0647 51.1927 50.6403 47.688 53.8595 43.1914C57.0787 38.6947 58.7969 33.4081 58.7969 28C58.7884 20.7504 55.699 13.8001 50.2066 8.67384C44.7142 3.54762 37.2674 0.664211 29.5 0.65625ZM29.5 53.1562C24.1692 53.1562 18.9581 51.6809 14.5257 48.9167C10.0932 46.1525 6.63859 42.2236 4.59857 37.6269C2.55855 33.0302 2.02479 27.9721 3.06478 23.0923C4.10478 18.2124 6.67181 13.73 10.4413 10.2118C14.2107 6.69368 19.0133 4.29778 24.2417 3.32712C29.4701 2.35646 34.8895 2.85464 39.8145 4.75866C44.7396 6.66267 48.9491 9.88701 51.9107 14.0239C54.8724 18.1609 56.4531 23.0246 56.4531 28C56.4454 34.6696 53.6032 41.064 48.5502 45.7802C43.4972 50.4963 36.646 53.149 29.5 53.1562ZM47.0781 28C47.0781 28.2901 46.9547 28.5683 46.7349 28.7734C46.5151 28.9785 46.2171 29.0937 45.9063 29.0937H29.5C29.1892 29.0937 28.8911 28.9785 28.6714 28.7734C28.4516 28.5683 28.3281 28.2901 28.3281 28V12.6875C28.3281 12.3974 28.4516 12.1192 28.6714 11.9141C28.8911 11.709 29.1892 11.5937 29.5 11.5937C29.8108 11.5937 30.1089 11.709 30.3287 11.9141C30.5484 12.1192 30.6719 12.3974 30.6719 12.6875V26.9062H45.9063C46.2171 26.9062 46.5151 27.0215 46.7349 27.2266C46.9547 27.4317 47.0781 27.7099 47.0781 28Z"
        fill="#29DA9A8A" />
</svg>