<svg width="44" height="54" viewBox="0 0 44 54" fill="none" xmlns="http://www.w3.org/2000/svg">
<path d="M33.0204 9.91589L33.0211 9.91668C39.9085 17.5065 43.5 25.4396 43.5 32.8533C43.5 38.3047 41.2402 43.5374 37.2104 47.3989C33.1799 51.2611 27.7089 53.4345 22 53.4345C16.2911 53.4345 10.8201 51.2611 6.78959 47.3989C2.75976 43.5374 0.5 38.3047 0.5 32.8533C0.5 25.4396 4.09151 17.5065 10.9789 9.91668L10.9796 9.91588C14.0867 6.47719 17.5825 3.37888 21.4031 0.677935C21.5766 0.562958 21.7848 0.5 22 0.5C22.215 0.5 22.4232 0.562861 22.5966 0.677687C26.4173 3.37869 29.9132 6.47708 33.0204 9.91589ZM21.9994 51.4929H22.0006C27.145 51.4869 32.081 49.5262 35.7249 46.0345C39.3695 42.5421 41.424 37.8025 41.4302 32.8539V32.8533C41.4302 25.3775 37.5743 18.591 33.2912 13.3506C29.0015 8.10202 24.2325 4.34229 22.2974 2.91073L22 2.69076L21.7026 2.91073C19.7675 4.34229 14.9985 8.10202 10.7088 13.3506C6.42569 18.591 2.56977 25.3775 2.56977 32.8533L2.56977 32.8539C2.57604 37.8025 4.63049 42.5421 8.2751 46.0345C11.919 49.5262 16.855 51.4869 21.9994 51.4929ZM23.8687 43.6622L23.8702 43.662C28.5154 42.9142 32.4634 39.1419 33.257 34.6563L33.2571 34.656C33.3008 34.408 33.4466 34.1807 33.6706 34.0281C33.7816 33.9525 33.9081 33.8978 34.0432 33.8682C34.1782 33.8385 34.3182 33.8346 34.455 33.8567C34.5918 33.8789 34.7217 33.9265 34.8374 33.996C34.9532 34.0656 35.052 34.1554 35.1293 34.2595C35.2065 34.3635 35.2607 34.4799 35.2898 34.6018C35.3188 34.723 35.3227 34.8482 35.3014 34.9707C34.8088 37.6051 33.4854 40.035 31.5055 41.9323C29.5261 43.829 26.9856 45.102 24.2243 45.5768C24.1645 45.5853 24.1042 45.5898 24.0436 45.5903C23.7775 45.5911 23.5242 45.4957 23.3335 45.3283C23.1432 45.1613 23.0298 44.9358 23.009 44.6989C22.9883 44.4622 23.0609 44.2238 23.2176 44.0311C23.3748 43.8377 23.6063 43.7037 23.8687 43.6622Z" fill="#38E4AE" fill-opacity="0.13"/>
<path d="M33.0204 9.91589L33.0211 9.91668C39.9085 17.5065 43.5 25.4396 43.5 32.8533C43.5 38.3047 41.2402 43.5374 37.2104 47.3989C33.1799 51.2611 27.7089 53.4345 22 53.4345C16.2911 53.4345 10.8201 51.2611 6.78959 47.3989C2.75976 43.5374 0.5 38.3047 0.5 32.8533C0.5 25.4396 4.09151 17.5065 10.9789 9.91668L10.9796 9.91588C14.0867 6.47719 17.5825 3.37888 21.4031 0.677935C21.5766 0.562958 21.7848 0.5 22 0.5C22.215 0.5 22.4232 0.562861 22.5966 0.677687C26.4173 3.37869 29.9132 6.47708 33.0204 9.91589ZM21.9994 51.4929H22.0006C27.145 51.4869 32.081 49.5262 35.7249 46.0345C39.3695 42.5421 41.424 37.8025 41.4302 32.8539V32.8533C41.4302 25.3775 37.5743 18.591 33.2912 13.3506C29.0015 8.10202 24.2325 4.34229 22.2974 2.91073L22 2.69076L21.7026 2.91073C19.7675 4.34229 14.9985 8.10202 10.7088 13.3506C6.42569 18.591 2.56977 25.3775 2.56977 32.8533L2.56977 32.8539C2.57604 37.8025 4.63049 42.5421 8.2751 46.0345C11.919 49.5262 16.855 51.4869 21.9994 51.4929ZM23.8687 43.6622L23.8702 43.662C28.5154 42.9142 32.4634 39.1419 33.257 34.6563L33.2571 34.656C33.3008 34.408 33.4466 34.1807 33.6706 34.0281C33.7816 33.9525 33.9081 33.8978 34.0432 33.8682C34.1782 33.8385 34.3182 33.8346 34.455 33.8567C34.5918 33.8789 34.7217 33.9265 34.8374 33.996C34.9532 34.0656 35.052 34.1554 35.1293 34.2595C35.2065 34.3635 35.2607 34.4799 35.2898 34.6018C35.3188 34.723 35.3227 34.8482 35.3014 34.9707C34.8088 37.6051 33.4854 40.035 31.5055 41.9323C29.5261 43.829 26.9856 45.102 24.2243 45.5768C24.1645 45.5853 24.1042 45.5898 24.0436 45.5903C23.7775 45.5911 23.5242 45.4957 23.3335 45.3283C23.1432 45.1613 23.0298 44.9358 23.009 44.6989C22.9883 44.4622 23.0609 44.2238 23.2176 44.0311C23.3748 43.8377 23.6063 43.7037 23.8687 43.6622Z" fill="#343E3D" fill-opacity="0.2"/>
<path d="M33.0204 9.91589L33.0211 9.91668C39.9085 17.5065 43.5 25.4396 43.5 32.8533C43.5 38.3047 41.2402 43.5374 37.2104 47.3989C33.1799 51.2611 27.7089 53.4345 22 53.4345C16.2911 53.4345 10.8201 51.2611 6.78959 47.3989C2.75976 43.5374 0.5 38.3047 0.5 32.8533C0.5 25.4396 4.09151 17.5065 10.9789 9.91668L10.9796 9.91588C14.0867 6.47719 17.5825 3.37888 21.4031 0.677935C21.5766 0.562958 21.7848 0.5 22 0.5C22.215 0.5 22.4232 0.562861 22.5966 0.677687C26.4173 3.37869 29.9132 6.47708 33.0204 9.91589ZM21.9994 51.4929H22.0006C27.145 51.4869 32.081 49.5262 35.7249 46.0345C39.3695 42.5421 41.424 37.8025 41.4302 32.8539V32.8533C41.4302 25.3775 37.5743 18.591 33.2912 13.3506C29.0015 8.10202 24.2325 4.34229 22.2974 2.91073L22 2.69076L21.7026 2.91073C19.7675 4.34229 14.9985 8.10202 10.7088 13.3506C6.42569 18.591 2.56977 25.3775 2.56977 32.8533L2.56977 32.8539C2.57604 37.8025 4.63049 42.5421 8.2751 46.0345C11.919 49.5262 16.855 51.4869 21.9994 51.4929ZM23.8687 43.6622L23.8702 43.662C28.5154 42.9142 32.4634 39.1419 33.257 34.6563L33.2571 34.656C33.3008 34.408 33.4466 34.1807 33.6706 34.0281C33.7816 33.9525 33.9081 33.8978 34.0432 33.8682C34.1782 33.8385 34.3182 33.8346 34.455 33.8567C34.5918 33.8789 34.7217 33.9265 34.8374 33.996C34.9532 34.0656 35.052 34.1554 35.1293 34.2595C35.2065 34.3635 35.2607 34.4799 35.2898 34.6018C35.3188 34.723 35.3227 34.8482 35.3014 34.9707C34.8088 37.6051 33.4854 40.035 31.5055 41.9323C29.5261 43.829 26.9856 45.102 24.2243 45.5768C24.1645 45.5853 24.1042 45.5898 24.0436 45.5903C23.7775 45.5911 23.5242 45.4957 23.3335 45.3283C23.1432 45.1613 23.0298 44.9358 23.009 44.6989C22.9883 44.4622 23.0609 44.2238 23.2176 44.0311C23.3748 43.8377 23.6063 43.7037 23.8687 43.6622Z" stroke="#D9D9D9"/>
</svg>
