<svg width="62" height="36" viewBox="0 0 62 36" fill="none" xmlns="http://www.w3.org/2000/svg">
<path fill-rule="evenodd" clip-rule="evenodd" d="M43.1901 0.5H49.3568V35.5H43.1901V19.75H18.5234V35.5H12.3568V0.5H18.5234V16.25H43.1901V0.5ZM3.10677 16.25V5.75H9.27344V30.25H3.10677V19.75H0.0234375V16.25H3.10677ZM61.6901 19.75H58.6068V30.25H52.4401V5.75H58.6068V16.25H61.6901V19.75Z" fill="#38E4AE" fill-opacity="0.13"/>
<path fill-rule="evenodd" clip-rule="evenodd" d="M43.1901 0.5H49.3568V35.5H43.1901V19.75H18.5234V35.5H12.3568V0.5H18.5234V16.25H43.1901V0.5ZM3.10677 16.25V5.75H9.27344V30.25H3.10677V19.75H0.0234375V16.25H3.10677ZM61.6901 19.75H58.6068V30.25H52.4401V5.75H58.6068V16.25H61.6901V19.75Z" fill="#343E3D" fill-opacity="0.2"/>
</svg>
