<svg width="99" height="45" viewBox="0 0 99 45" fill="none" xmlns="http://www.w3.org/2000/svg">
<g clip-path="url(#clip0_0_1)">
<path d="M95 4.75C94.3572 4.75 93.7289 4.94061 93.1944 5.29772C92.6599 5.65484 92.2434 6.16242 91.9974 6.75628C91.7514 7.35014 91.687 8.00361 91.8124 8.63404C91.9379 9.26448 92.2474 9.84358 92.7019 10.2981C93.1564 10.7526 93.7355 11.0622 94.366 11.1876C94.9964 11.313 95.6499 11.2486 96.2437 11.0026C96.8376 10.7566 97.3452 10.3401 97.7023 9.8056C98.0594 9.27114 98.25 8.64279 98.25 8C98.2491 7.13833 97.9064 6.3122 97.2971 5.70291C96.6878 5.09361 95.8617 4.75091 95 4.75ZM95 10.75C94.4561 10.75 93.9244 10.5887 93.4722 10.2865C93.0199 9.98437 92.6675 9.55488 92.4593 9.05238C92.2512 8.54988 92.1967 7.99695 92.3028 7.4635C92.409 6.93005 92.6709 6.44005 93.0555 6.05546C93.4401 5.67086 93.9301 5.40895 94.4635 5.30284C94.997 5.19673 95.5499 5.25119 96.0524 5.45933C96.5549 5.66747 96.9844 6.01995 97.2865 6.47218C97.5887 6.92442 97.75 7.4561 97.75 8C97.7492 8.72909 97.4592 9.42808 96.9436 9.94363C96.4281 10.4592 95.7291 10.7492 95 10.75ZM95.7216 8.38156C95.918 8.27637 96.0737 8.10859 96.1639 7.90484C96.2541 7.70108 96.2737 7.47304 96.2195 7.2569C96.1653 7.04075 96.0405 6.84889 95.8649 6.71177C95.6892 6.57465 95.4728 6.50011 95.25 6.5H94.25C94.1837 6.5 94.1201 6.52634 94.0732 6.57322C94.0263 6.62011 94 6.6837 94 6.75V9.25C94 9.3163 94.0263 9.37989 94.0732 9.42678C94.1201 9.47366 94.1837 9.5 94.25 9.5C94.3163 9.5 94.3799 9.47366 94.4268 9.42678C94.4737 9.37989 94.5 9.3163 94.5 9.25V8.5H95.1997L95.7934 9.38875C95.8302 9.44395 95.8875 9.48227 95.9525 9.49528C96.0176 9.50829 96.0851 9.49492 96.1403 9.45813C96.1955 9.42133 96.2338 9.36411 96.2468 9.29906C96.2599 9.234 96.2465 9.16645 96.2097 9.11125L95.7216 8.38156ZM94.5 7H95.25C95.3826 7 95.5098 7.05268 95.6036 7.14645C95.6973 7.24021 95.75 7.36739 95.75 7.5C95.75 7.63261 95.6973 7.75979 95.6036 7.85355C95.5098 7.94732 95.3826 8 95.25 8H94.5V7Z" fill="#29DA9A" fill-opacity="0.54"/>
</g>
<mask id="path-2-outside-1_0_1" maskUnits="userSpaceOnUse" x="-1" y="-1" width="92" height="47" fill="black">
<rect fill="white" x="-1" y="-1" width="92" height="47"/>
<path d="M16.4 3.4C18.24 3.4 20.0267 3.52 21.76 3.76C23.52 4 24.9067 4.26666 25.92 4.56L25.52 10.8H22.6L21.16 7.44C20.9467 7.14667 20.3733 6.86667 19.44 6.6C18.5067 6.33333 17.28 6.2 15.76 6.2C13.92 6.2 12.2933 6.72 10.88 7.76C9.46667 8.77333 8.37333 10.1867 7.6 12C6.85333 13.8133 6.48 15.88 6.48 18.2C6.48 20.6533 6.78667 22.9067 7.4 24.96C8.04 27.0133 9.02667 28.68 10.36 29.96C11.6933 31.2133 13.36 31.84 15.36 31.84C16.56 31.84 17.68 31.6533 18.72 31.28C19.7867 30.9067 20.52 30.3333 20.92 29.56V23.32L16.64 22.84V20.16H28.16V22.84L26.12 23.28V32.64C25.6667 32.6133 25.1333 32.6667 24.52 32.8C23.9067 32.9067 22.96 33.1067 21.68 33.4C19.9733 33.8 18.5733 34.0933 17.48 34.28C16.4133 34.4667 15.3333 34.56 14.24 34.56C11.5467 34.56 9.14667 33.92 7.04 32.64C4.96 31.3333 3.34667 29.5467 2.2 27.28C1.05333 25.0133 0.48 22.4667 0.48 19.64C0.48 16.3867 1.16 13.5333 2.52 11.08C3.90667 8.62667 5.81333 6.73333 8.24 5.4C10.6667 4.06667 13.3867 3.4 16.4 3.4ZM42.3888 11.48C45.8021 11.4533 48.4154 12.44 50.2288 14.44C52.0421 16.44 52.9354 19.1733 52.9088 22.64C52.9088 24.9867 52.4288 27.0667 51.4688 28.88C50.5088 30.6667 49.2021 32.0533 47.5488 33.04C45.8954 34 44.0154 34.48 41.9088 34.48C38.4154 34.48 35.7488 33.44 33.9088 31.36C32.0954 29.2533 31.1888 26.48 31.1888 23.04C31.1888 20.6933 31.6688 18.6667 32.6288 16.96C33.6154 15.2267 34.9488 13.8933 36.6288 12.96C38.3354 12.0267 40.2554 11.5333 42.3888 11.48ZM42.1088 14.08C40.3221 14.08 39.0421 14.8133 38.2688 16.28C37.5221 17.7467 37.1488 19.8 37.1488 22.44C37.1488 24.9733 37.5754 27.1733 38.4288 29.04C39.2821 30.9067 40.5221 31.84 42.1488 31.84C43.9621 31.84 45.2288 31.0667 45.9488 29.52C46.6688 27.9467 47.0288 25.7467 47.0288 22.92C47.0288 20.3067 46.6288 18.1867 45.8288 16.56C45.0288 14.9067 43.7888 14.08 42.1088 14.08ZM61.4269 0.439998C62.5202 0.439998 63.3602 0.733332 63.9469 1.32C64.5335 1.90667 64.8269 2.68 64.8269 3.64C64.8269 4.70666 64.4269 5.6 63.6269 6.32C62.8269 7.01333 61.8935 7.36 60.8269 7.36C59.8669 7.36 59.0669 7.08 58.4269 6.52C57.7869 5.93333 57.4669 5.16 57.4669 4.2C57.4669 3.53333 57.6535 2.90666 58.0269 2.32C58.4269 1.73333 58.9335 1.28 59.5469 0.959999C60.1602 0.613332 60.7869 0.439998 61.4269 0.439998ZM64.5069 12.08V34.64C64.5069 37.6 63.8535 39.9467 62.5469 41.68C61.2669 43.44 59.4802 44.32 57.1869 44.32C56.6802 44.32 56.0802 44.2667 55.3869 44.16C54.6935 44.0533 54.2535 43.9467 54.0669 43.84V40.48C54.2269 40.5333 54.5469 40.5867 55.0269 40.64C55.5335 40.6933 55.9602 40.72 56.3069 40.72C57.4002 40.72 58.1202 40.2 58.4669 39.16C58.8135 38.1467 58.9869 36.4533 58.9869 34.08V17.52L56.5869 15.24V13.76L63.2269 11.6L64.5069 12.08ZM80.8738 11.52C83.4071 11.52 85.3804 12.2267 86.7938 13.64C88.2071 15.0533 88.9804 17.0667 89.1138 19.68C89.1404 20.5867 89.1004 21.4267 88.9938 22.2C88.9138 22.9733 88.8604 23.4533 88.8338 23.64H74.9538C75.0604 26.0133 75.6871 27.8533 76.8338 29.16C78.0071 30.44 79.6604 31.08 81.7938 31.08C82.7538 31.08 83.7671 30.9867 84.8338 30.8C85.9271 30.5867 86.8604 30.2933 87.6338 29.92L88.5538 32C87.6471 32.7733 86.3804 33.3867 84.7538 33.84C83.1271 34.2933 81.5271 34.52 79.9538 34.52C76.5404 34.52 73.9004 33.5333 72.0338 31.56C70.1938 29.5867 69.2738 26.8667 69.2738 23.4C69.2738 21.1067 69.7671 19.0667 70.7538 17.28C71.7404 15.4667 73.1138 14.0533 74.8738 13.04C76.6338 12.0267 78.6338 11.52 80.8738 11.52ZM79.7938 14.04C78.4338 14.04 77.3271 14.6267 76.4738 15.8C75.6204 16.9467 75.1138 18.6 74.9538 20.76H83.4738C83.5271 20.12 83.5538 19.6267 83.5538 19.28C83.5538 17.76 83.2604 16.64 82.6738 15.92C82.2471 14.6667 81.2871 14.04 79.7938 14.04Z"/>
</mask>
<path d="M16.4 3.4C18.24 3.4 20.0267 3.52 21.76 3.76C23.52 4 24.9067 4.26666 25.92 4.56L25.52 10.8H22.6L21.16 7.44C20.9467 7.14667 20.3733 6.86667 19.44 6.6C18.5067 6.33333 17.28 6.2 15.76 6.2C13.92 6.2 12.2933 6.72 10.88 7.76C9.46667 8.77333 8.37333 10.1867 7.6 12C6.85333 13.8133 6.48 15.88 6.48 18.2C6.48 20.6533 6.78667 22.9067 7.4 24.96C8.04 27.0133 9.02667 28.68 10.36 29.96C11.6933 31.2133 13.36 31.84 15.36 31.84C16.56 31.84 17.68 31.6533 18.72 31.28C19.7867 30.9067 20.52 30.3333 20.92 29.56V23.32L16.64 22.84V20.16H28.16V22.84L26.12 23.28V32.64C25.6667 32.6133 25.1333 32.6667 24.52 32.8C23.9067 32.9067 22.96 33.1067 21.68 33.4C19.9733 33.8 18.5733 34.0933 17.48 34.28C16.4133 34.4667 15.3333 34.56 14.24 34.56C11.5467 34.56 9.14667 33.92 7.04 32.64C4.96 31.3333 3.34667 29.5467 2.2 27.28C1.05333 25.0133 0.48 22.4667 0.48 19.64C0.48 16.3867 1.16 13.5333 2.52 11.08C3.90667 8.62667 5.81333 6.73333 8.24 5.4C10.6667 4.06667 13.3867 3.4 16.4 3.4ZM42.3888 11.48C45.8021 11.4533 48.4154 12.44 50.2288 14.44C52.0421 16.44 52.9354 19.1733 52.9088 22.64C52.9088 24.9867 52.4288 27.0667 51.4688 28.88C50.5088 30.6667 49.2021 32.0533 47.5488 33.04C45.8954 34 44.0154 34.48 41.9088 34.48C38.4154 34.48 35.7488 33.44 33.9088 31.36C32.0954 29.2533 31.1888 26.48 31.1888 23.04C31.1888 20.6933 31.6688 18.6667 32.6288 16.96C33.6154 15.2267 34.9488 13.8933 36.6288 12.96C38.3354 12.0267 40.2554 11.5333 42.3888 11.48ZM42.1088 14.08C40.3221 14.08 39.0421 14.8133 38.2688 16.28C37.5221 17.7467 37.1488 19.8 37.1488 22.44C37.1488 24.9733 37.5754 27.1733 38.4288 29.04C39.2821 30.9067 40.5221 31.84 42.1488 31.84C43.9621 31.84 45.2288 31.0667 45.9488 29.52C46.6688 27.9467 47.0288 25.7467 47.0288 22.92C47.0288 20.3067 46.6288 18.1867 45.8288 16.56C45.0288 14.9067 43.7888 14.08 42.1088 14.08ZM61.4269 0.439998C62.5202 0.439998 63.3602 0.733332 63.9469 1.32C64.5335 1.90667 64.8269 2.68 64.8269 3.64C64.8269 4.70666 64.4269 5.6 63.6269 6.32C62.8269 7.01333 61.8935 7.36 60.8269 7.36C59.8669 7.36 59.0669 7.08 58.4269 6.52C57.7869 5.93333 57.4669 5.16 57.4669 4.2C57.4669 3.53333 57.6535 2.90666 58.0269 2.32C58.4269 1.73333 58.9335 1.28 59.5469 0.959999C60.1602 0.613332 60.7869 0.439998 61.4269 0.439998ZM64.5069 12.08V34.64C64.5069 37.6 63.8535 39.9467 62.5469 41.68C61.2669 43.44 59.4802 44.32 57.1869 44.32C56.6802 44.32 56.0802 44.2667 55.3869 44.16C54.6935 44.0533 54.2535 43.9467 54.0669 43.84V40.48C54.2269 40.5333 54.5469 40.5867 55.0269 40.64C55.5335 40.6933 55.9602 40.72 56.3069 40.72C57.4002 40.72 58.1202 40.2 58.4669 39.16C58.8135 38.1467 58.9869 36.4533 58.9869 34.08V17.52L56.5869 15.24V13.76L63.2269 11.6L64.5069 12.08ZM80.8738 11.52C83.4071 11.52 85.3804 12.2267 86.7938 13.64C88.2071 15.0533 88.9804 17.0667 89.1138 19.68C89.1404 20.5867 89.1004 21.4267 88.9938 22.2C88.9138 22.9733 88.8604 23.4533 88.8338 23.64H74.9538C75.0604 26.0133 75.6871 27.8533 76.8338 29.16C78.0071 30.44 79.6604 31.08 81.7938 31.08C82.7538 31.08 83.7671 30.9867 84.8338 30.8C85.9271 30.5867 86.8604 30.2933 87.6338 29.92L88.5538 32C87.6471 32.7733 86.3804 33.3867 84.7538 33.84C83.1271 34.2933 81.5271 34.52 79.9538 34.52C76.5404 34.52 73.9004 33.5333 72.0338 31.56C70.1938 29.5867 69.2738 26.8667 69.2738 23.4C69.2738 21.1067 69.7671 19.0667 70.7538 17.28C71.7404 15.4667 73.1138 14.0533 74.8738 13.04C76.6338 12.0267 78.6338 11.52 80.8738 11.52ZM79.7938 14.04C78.4338 14.04 77.3271 14.6267 76.4738 15.8C75.6204 16.9467 75.1138 18.6 74.9538 20.76H83.4738C83.5271 20.12 83.5538 19.6267 83.5538 19.28C83.5538 17.76 83.2604 16.64 82.6738 15.92C82.2471 14.6667 81.2871 14.04 79.7938 14.04Z" fill="#29DA9A" fill-opacity="0.54"/>
<path d="M21.76 3.76L21.6228 4.75055L21.6249 4.75083L21.76 3.76ZM25.92 4.56L26.918 4.62397L26.9693 3.82269L26.1981 3.59943L25.92 4.56ZM25.52 10.8V11.8H26.458L26.518 10.864L25.52 10.8ZM22.6 10.8L21.6809 11.1939L21.9406 11.8H22.6V10.8ZM21.16 7.44L22.0791 7.04608L22.0349 6.94275L21.9687 6.85183L21.16 7.44ZM19.44 6.6L19.7147 5.63847H19.7147L19.44 6.6ZM10.88 7.76L11.4627 8.57276L11.4727 8.56544L10.88 7.76ZM7.6 12L6.68009 11.6077L6.67532 11.6192L7.6 12ZM7.4 24.96L6.44176 25.2462L6.4453 25.2576L7.4 24.96ZM10.36 29.96L9.66743 30.6814L9.67509 30.6886L10.36 29.96ZM18.72 31.28L18.3896 30.3361L18.3821 30.3388L18.72 31.28ZM20.92 29.56L21.8082 30.0194L21.92 29.8033V29.56H20.92ZM20.92 23.32H21.92V22.4259L21.0315 22.3262L20.92 23.32ZM16.64 22.84H15.64V23.7341L16.5285 23.8338L16.64 22.84ZM16.64 20.16V19.16H15.64V20.16H16.64ZM28.16 20.16H29.16V19.16H28.16V20.16ZM28.16 22.84L28.3708 23.8175L29.16 23.6473V22.84H28.16ZM26.12 23.28L25.9092 22.3025L25.12 22.4727V23.28H26.12ZM26.12 32.64L26.0613 33.6383L27.12 33.7006V32.64H26.12ZM24.52 32.8L24.6913 33.7852L24.712 33.7816L24.7324 33.7772L24.52 32.8ZM21.68 33.4L21.4566 32.4253L21.4518 32.4264L21.68 33.4ZM17.48 34.28L17.3117 33.2943L17.3076 33.295L17.48 34.28ZM7.04 32.64L6.50805 33.4868L6.51437 33.4907L6.52074 33.4946L7.04 32.64ZM2.2 27.28L3.09232 26.8286L2.2 27.28ZM2.52 11.08L1.64941 10.5879L1.6454 10.5952L2.52 11.08ZM8.24 5.4L7.75845 4.52358L8.24 5.4ZM16.4 4.4C18.1965 4.4 19.9372 4.51715 21.6228 4.75055L21.8972 2.76945C20.1161 2.52284 18.2835 2.4 16.4 2.4V4.4ZM21.6249 4.75083C23.3644 4.98804 24.6964 5.24684 25.6419 5.52056L26.1981 3.59943C25.117 3.28649 23.6756 3.01196 21.8951 2.76917L21.6249 4.75083ZM24.9221 4.49603L24.5221 10.736L26.518 10.864L26.918 4.62397L24.9221 4.49603ZM25.52 9.8H22.6V11.8H25.52V9.8ZM23.5191 10.4061L22.0791 7.04608L20.2409 7.83392L21.6809 11.1939L23.5191 10.4061ZM21.9687 6.85183C21.7184 6.50757 21.3464 6.27629 21.0088 6.11143C20.6497 5.93606 20.2119 5.78053 19.7147 5.63847L19.1653 7.56152C19.6014 7.68613 19.9169 7.80393 20.1312 7.90857C20.3669 8.02371 20.3883 8.07909 20.3513 8.02817L21.9687 6.85183ZM19.7147 5.63847C18.6565 5.33612 17.3268 5.2 15.76 5.2V7.2C17.2332 7.2 18.3568 7.33054 19.1653 7.56152L19.7147 5.63847ZM15.76 5.2C13.7178 5.2 11.8811 5.78177 10.2873 6.95456L11.4727 8.56544C12.7056 7.65822 14.1222 7.2 15.76 7.2V5.2ZM10.2973 6.9473C8.71615 8.08097 7.51548 9.64903 6.68016 11.6077L8.51984 12.3923C9.23119 10.7243 10.2172 9.4657 11.4627 8.57269L10.2973 6.9473ZM6.67532 11.6192C5.8707 13.5733 5.48 15.7729 5.48 18.2H7.48C7.48 15.9871 7.83597 14.0533 8.52468 12.3807L6.67532 11.6192ZM5.48 18.2C5.48 20.7365 5.79708 23.0877 6.44183 25.2462L8.35817 24.6738C7.77625 22.7256 7.48 20.5702 7.48 18.2H5.48ZM6.4453 25.2576C7.12725 27.4455 8.19379 29.2667 9.66747 30.6814L11.0525 29.2386C9.85955 28.0933 8.95275 26.5812 8.3547 24.6624L6.4453 25.2576ZM9.67509 30.6886C11.2118 32.1332 13.1313 32.84 15.36 32.84V30.84C13.5887 30.84 12.1748 30.2935 11.0449 29.2314L9.67509 30.6886ZM15.36 32.84C16.6653 32.84 17.9005 32.6367 19.0579 32.2212L18.3821 30.3388C17.4595 30.67 16.4547 30.84 15.36 30.84V32.84ZM19.0504 32.2239C20.2838 31.7922 21.2592 31.0809 21.8082 30.0194L20.0318 29.1006C19.7808 29.5858 19.2896 30.0212 18.3897 30.3361L19.0504 32.2239ZM21.92 29.56V23.32H19.92V29.56H21.92ZM21.0315 22.3262L16.7515 21.8462L16.5285 23.8338L20.8085 24.3138L21.0315 22.3262ZM17.64 22.84V20.16H15.64V22.84H17.64ZM16.64 21.16H28.16V19.16H16.64V21.16ZM27.16 20.16V22.84H29.16V20.16H27.16ZM27.9492 21.8625L25.9092 22.3025L26.3308 24.2575L28.3708 23.8175L27.9492 21.8625ZM25.12 23.28V32.64H27.12V23.28H25.12ZM26.1787 31.6417C25.6073 31.6081 24.9786 31.6769 24.3076 31.8228L24.7324 33.7772C25.288 33.6564 25.7261 33.6186 26.0613 33.6383L26.1787 31.6417ZM24.3487 31.8148C23.7077 31.9263 22.7394 32.1313 21.4566 32.4253L21.9034 34.3747C23.1806 34.082 24.1057 33.8871 24.6913 33.7852L24.3487 31.8148ZM21.4518 32.4264C19.755 32.8241 18.3769 33.1124 17.3117 33.2943L17.6483 35.2657C18.7697 35.0743 20.1916 34.7759 21.9082 34.3736L21.4518 32.4264ZM17.3076 33.295C16.2984 33.4716 15.2761 33.56 14.24 33.56V35.56C15.3906 35.56 16.5282 35.4618 17.6524 35.265L17.3076 33.295ZM14.24 33.56C11.7123 33.56 9.49508 32.9616 7.55926 31.7854L6.52074 33.4946C8.79825 34.8784 11.3811 35.56 14.24 35.56V33.56ZM7.57195 31.7932C5.65116 30.5866 4.15993 28.939 3.09232 26.8286L1.30768 27.7314C2.5334 30.1543 4.26884 32.0801 6.50805 33.4868L7.57195 31.7932ZM3.09232 26.8286C2.02411 24.717 1.48 22.3278 1.48 19.64H-0.52C-0.52 22.6056 0.0825529 25.3096 1.30768 27.7314L3.09232 26.8286ZM1.48 19.64C1.48 16.529 2.12915 13.8476 3.39461 11.5648L1.6454 10.5952C0.190849 13.219 -0.52 16.2444 -0.52 19.64H1.48ZM3.39056 11.5721C4.68751 9.27746 6.46078 7.5186 8.72155 6.27642L7.75845 4.52358C5.16589 5.94806 3.12583 7.97587 1.64944 10.5879L3.39056 11.5721ZM8.72155 6.27642C10.9878 5.0312 13.5398 4.4 16.4 4.4V2.4C13.2336 2.4 10.3455 3.10213 7.75845 4.52358L8.72155 6.27642ZM42.3888 11.48L42.3809 10.48L42.3723 10.4801L42.3638 10.4803L42.3888 11.48ZM50.2288 14.44L50.9696 13.7683L50.2288 14.44ZM52.9088 22.64L51.9088 22.6323V22.64H52.9088ZM51.4688 28.88L52.3497 29.3533L52.3525 29.3479L51.4688 28.88ZM47.5488 33.04L48.0509 33.9049L48.0612 33.8987L47.5488 33.04ZM33.9087 31.36L33.1508 32.0124L33.1598 32.0226L33.9087 31.36ZM32.6287 16.96L31.7597 16.4653L31.7572 16.4697L32.6287 16.96ZM36.6287 12.96L36.1489 12.0826L36.1431 12.0858L36.6287 12.96ZM38.2687 16.28L37.3842 15.8136L37.3808 15.8199L37.3776 15.8263L38.2687 16.28ZM38.4287 29.04L39.3382 28.6242L38.4287 29.04ZM45.9487 29.52L46.8554 29.942L46.8581 29.9361L45.9487 29.52ZM45.8288 16.56L44.9286 16.9956L44.9314 17.0013L45.8288 16.56ZM42.3966 12.48C45.6057 12.4549 47.9142 13.376 49.4879 15.1117L50.9696 13.7683C48.9166 11.504 45.9985 10.4518 42.3809 10.48L42.3966 12.48ZM49.4879 15.1117C51.089 16.8775 51.9341 19.3429 51.9088 22.6323L53.9087 22.6477C53.9368 19.0038 52.9952 16.0025 50.9696 13.7683L49.4879 15.1117ZM51.9088 22.64C51.9088 24.8472 51.4583 26.7625 50.585 28.4121L52.3525 29.3479C53.3992 27.3709 53.9088 25.1261 53.9088 22.64H51.9088ZM50.5879 28.4067C49.7088 30.0428 48.5258 31.2924 47.0363 32.1813L48.0612 33.8987C49.8784 32.8143 51.3087 31.2905 52.3496 29.3533L50.5879 28.4067ZM47.0466 32.1752C45.561 33.0378 43.8575 33.48 41.9088 33.48V35.48C44.1733 35.48 46.2298 34.9622 48.0509 33.9048L47.0466 32.1752ZM41.9088 33.48C38.6224 33.48 36.261 32.5098 34.6577 30.6974L33.1598 32.0226C35.2365 34.3702 38.2084 35.48 41.9088 35.48V33.48ZM34.6667 30.7076C33.0441 28.8226 32.1888 26.2995 32.1888 23.04H30.1887C30.1887 26.6605 31.1467 29.6841 33.1508 32.0124L34.6667 30.7076ZM32.1888 23.04C32.1888 20.831 32.6398 18.9801 33.5003 17.4503L31.7572 16.4697C30.6977 18.3532 30.1887 20.5556 30.1887 23.04H32.1888ZM33.4978 17.4547C34.3974 15.8743 35.6008 14.6751 37.1144 13.8342L36.1431 12.0858C34.2967 13.1116 32.8334 14.5791 31.7597 16.4653L33.4978 17.4547ZM37.1086 13.8374C38.6623 12.9876 40.4239 12.5294 42.4137 12.4797L42.3638 10.4803C40.087 10.5372 38.0085 11.0657 36.1489 12.0826L37.1086 13.8374ZM42.1087 13.08C41.0777 13.08 40.1319 13.2924 39.3116 13.7623C38.4872 14.2346 37.848 14.9339 37.3842 15.8136L39.1533 16.7464C39.4628 16.1595 39.8503 15.7587 40.3059 15.4977C40.7656 15.2343 41.3531 15.08 42.1087 15.08V13.08ZM37.3776 15.8263C36.5288 17.4935 36.1488 19.7273 36.1488 22.44H38.1488C38.1488 19.8727 38.5154 17.9998 39.1599 16.7337L37.3776 15.8263ZM36.1488 22.44C36.1488 25.084 36.594 27.4318 37.5193 29.4558L39.3382 28.6242C38.5568 26.9149 38.1488 24.8626 38.1488 22.44H36.1488ZM37.5193 29.4558C37.9936 30.4934 38.6084 31.3451 39.3974 31.939C40.1994 32.5427 41.1296 32.84 42.1488 32.84V30.84C41.5412 30.84 41.0381 30.6707 40.6001 30.341C40.1491 30.0016 39.7172 29.4533 39.3382 28.6242L37.5193 29.4558ZM42.1488 32.84C43.1985 32.84 44.1581 32.6152 44.9798 32.1135C45.8055 31.6094 46.4249 30.8666 46.8553 29.942L45.0422 29.098C44.7526 29.7201 44.3787 30.1373 43.9377 30.4065C43.4928 30.6781 42.9124 30.84 42.1488 30.84V32.84ZM46.8581 29.9361C47.664 28.175 48.0288 25.8102 48.0288 22.92H46.0288C46.0288 25.6831 45.6735 27.7183 45.0394 29.1039L46.8581 29.9361ZM48.0288 22.92C48.0288 20.2164 47.6167 17.9296 46.7261 16.1187L44.9314 17.0013C45.6408 18.4437 46.0288 20.3969 46.0288 22.92H48.0288ZM46.7289 16.1244C46.2692 15.1743 45.6528 14.4009 44.8535 13.8679C44.0488 13.3315 43.1202 13.08 42.1087 13.08V15.08C42.7773 15.08 43.3087 15.2418 43.744 15.532C44.1847 15.8258 44.5883 16.2924 44.9286 16.9956L46.7289 16.1244ZM63.9469 1.32L64.654 0.612892L63.9469 1.32ZM63.6269 6.32L64.2818 7.07569L64.2889 7.06956L64.2958 7.06329L63.6269 6.32ZM58.4269 6.52L57.7512 7.25715L57.7597 7.26496L57.7684 7.27258L58.4269 6.52ZM58.0269 2.32L57.2006 1.75666L57.1917 1.76975L57.1832 1.78312L58.0269 2.32ZM59.5469 0.959999L60.0094 1.84658L60.0243 1.83882L60.0389 1.83056L59.5469 0.959999ZM64.5069 12.08H65.5069V11.387L64.858 11.1437L64.5069 12.08ZM62.5469 41.68L61.7484 41.078L61.7432 41.0849L61.7381 41.0918L62.5469 41.68ZM55.3869 44.16L55.5389 43.1716L55.3869 44.16ZM54.0669 43.84H53.0669V44.4203L53.5707 44.7082L54.0669 43.84ZM54.0669 40.48L54.3831 39.5313L53.0669 39.0926V40.48H54.0669ZM55.0269 40.64L54.9164 41.6339L54.9222 41.6345L55.0269 40.64ZM58.4669 39.16L57.5207 38.8363L57.5182 38.8438L58.4669 39.16ZM58.9869 17.52H59.9869V17.0907L59.6756 16.795L58.9869 17.52ZM56.5869 15.24H55.5869V15.6693L55.8981 15.965L56.5869 15.24ZM56.5869 13.76L56.2775 12.809L55.5869 13.0337V13.76H56.5869ZM63.2269 11.6L63.578 10.6637L63.2503 10.5408L62.9175 10.649L63.2269 11.6ZM61.4269 1.44C62.3424 1.44 62.8945 1.68187 63.2398 2.02711L64.654 0.612892C63.8259 -0.215211 62.698 -0.560001 61.4269 -0.560001V1.44ZM63.2398 2.02711C63.6093 2.39659 63.8269 2.90012 63.8269 3.64H65.8269C65.8269 2.45988 65.4578 1.41674 64.654 0.612892L63.2398 2.02711ZM63.8269 3.64C63.8269 4.42027 63.5494 5.04439 62.9579 5.5767L64.2958 7.06329C65.3044 6.15561 65.8269 4.99306 65.8269 3.64H63.8269ZM62.9719 5.56431C62.3553 6.09876 61.655 6.36 60.8269 6.36V8.36C62.1321 8.36 63.2985 7.9279 64.2818 7.07569L62.9719 5.56431ZM60.8269 6.36C60.0757 6.36 59.5195 6.14724 59.0854 5.76742L57.7684 7.27258C58.6143 8.01276 59.658 8.36 60.8269 8.36V6.36ZM59.1026 5.78284C58.6923 5.40678 58.4669 4.91267 58.4669 4.2H56.4669C56.4669 5.40733 56.8814 6.45988 57.7512 7.25715L59.1026 5.78284ZM58.4669 4.2C58.4669 3.73195 58.5947 3.29036 58.8705 2.85687L57.1832 1.78312C56.7124 2.52297 56.4669 3.33471 56.4669 4.2H58.4669ZM58.8531 2.88334C59.1629 2.42898 59.546 2.08835 60.0094 1.84658L59.0843 0.0734138C58.321 0.471644 57.6909 1.03768 57.2006 1.75666L58.8531 2.88334ZM60.0389 1.83056C60.5177 1.55997 60.9763 1.44 61.4269 1.44V-0.560001C60.5975 -0.560001 59.8028 -0.33331 59.0548 0.0894356L60.0389 1.83056ZM63.5069 12.08V34.64H65.5069V12.08H63.5069ZM63.5069 34.64C63.5069 37.4607 62.8841 39.5714 61.7484 41.078L63.3454 42.282C64.823 40.3219 65.5069 37.7393 65.5069 34.64H63.5069ZM61.7381 41.0918C60.6579 42.5772 59.1805 43.32 57.1869 43.32V45.32C59.7799 45.32 61.8758 44.3028 63.3556 42.2682L61.7381 41.0918ZM57.1869 43.32C56.7463 43.32 56.1996 43.2733 55.5389 43.1716L55.2348 45.1484C55.9609 45.2601 56.6141 45.32 57.1869 45.32V43.32ZM55.5389 43.1716C55.2069 43.1205 54.9542 43.0722 54.7725 43.0281C54.5661 42.9781 54.5264 42.9508 54.563 42.9718L53.5707 44.7082C53.794 44.8358 54.0676 44.9152 54.3013 44.9719C54.5595 45.0345 54.8735 45.0928 55.2348 45.1484L55.5389 43.1716ZM55.0669 43.84V40.48H53.0669V43.84H55.0669ZM53.7506 41.4287C54.0267 41.5207 54.4508 41.5821 54.9164 41.6339L55.1373 39.6461C54.9076 39.6206 54.727 39.5962 54.5913 39.5736C54.5237 39.5623 54.4719 39.5523 54.4338 39.5438C54.3937 39.5349 54.3795 39.5301 54.3831 39.5313L53.7506 41.4287ZM54.9222 41.6345C55.4491 41.69 55.9132 41.72 56.3069 41.72V39.72C56.0072 39.72 55.618 39.6967 55.1316 39.6455L54.9222 41.6345ZM56.3069 41.72C57.0144 41.72 57.6859 41.5498 58.2524 41.1407C58.8186 40.7317 59.1917 40.1478 59.4156 39.4762L57.5182 38.8438C57.3954 39.2122 57.2352 39.4083 57.0814 39.5193C56.9278 39.6302 56.6927 39.72 56.3069 39.72V41.72ZM59.413 39.4837C59.8176 38.3011 59.9869 36.4626 59.9869 34.08H57.9869C57.9869 36.4441 57.8095 37.9923 57.5207 38.8363L59.413 39.4837ZM59.9869 34.08V17.52H57.9869V34.08H59.9869ZM59.6756 16.795L57.2756 14.515L55.8981 15.965L58.2981 18.245L59.6756 16.795ZM57.5869 15.24V13.76H55.5869V15.24H57.5869ZM56.8962 14.7109L63.5362 12.5509L62.9175 10.649L56.2775 12.809L56.8962 14.7109ZM62.8758 12.5363L64.1558 13.0163L64.858 11.1437L63.578 10.6637L62.8758 12.5363ZM86.7937 13.64L86.0866 14.3471L86.7937 13.64ZM89.1138 19.68L90.1133 19.6506L90.113 19.6398L90.1124 19.629L89.1138 19.68ZM88.9938 22.2L88.0031 22.0634L88.0008 22.0802L87.9991 22.0971L88.9938 22.2ZM88.8337 23.64V24.64H89.701L89.8237 23.7814L88.8337 23.64ZM74.9538 23.64V22.64H73.9078L73.9548 23.6849L74.9538 23.64ZM76.8337 29.16L76.0821 29.8196L76.0893 29.8277L76.0966 29.8357L76.8337 29.16ZM84.8337 30.8L85.0061 31.785L85.0157 31.7834L85.0253 31.7815L84.8337 30.8ZM87.6338 29.92L88.5483 29.5155L88.1301 28.57L87.199 29.0194L87.6338 29.92ZM88.5537 32L89.2027 32.7608L89.7698 32.2771L89.4683 31.5955L88.5537 32ZM84.7538 33.84L85.0222 34.8033L84.7538 33.84ZM72.0338 31.56L71.3023 32.242L71.3073 32.2472L72.0338 31.56ZM70.7538 17.28L71.6292 17.7634L71.6321 17.7579L70.7538 17.28ZM74.8737 13.04L74.3748 12.1734L74.8737 13.04ZM76.4737 15.8L77.276 16.397L77.2825 16.3882L76.4737 15.8ZM74.9538 20.76L73.9565 20.6861L73.8769 21.76H74.9538V20.76ZM83.4737 20.76V21.76H84.3939L84.4703 20.843L83.4737 20.76ZM82.6738 15.92L81.7271 16.2423L81.785 16.4124L81.8985 16.5517L82.6738 15.92ZM80.8737 12.52C83.2164 12.52 84.9077 13.1682 86.0866 14.3471L87.5009 12.9329C85.8531 11.2852 83.5977 10.52 80.8737 10.52V12.52ZM86.0866 14.3471C87.2764 15.5369 87.9903 17.2866 88.1151 19.731L90.1124 19.629C89.9705 16.8467 89.1377 14.5698 87.5009 12.9329L86.0866 14.3471ZM88.1142 19.7094C88.1395 20.5692 88.1011 21.353 88.0031 22.0634L89.9844 22.3366C90.0997 21.5003 90.1414 20.6041 90.1133 19.6506L88.1142 19.7094ZM87.9991 22.0971C87.9183 22.878 87.8671 23.3356 87.8438 23.4986L89.8237 23.7814C89.8537 23.5711 89.9092 23.0686 89.9884 22.3029L87.9991 22.0971ZM88.8337 22.64H74.9538V24.64H88.8337V22.64ZM73.9548 23.6849C74.0679 26.2027 74.7388 28.2889 76.0821 29.8196L77.5854 28.5004C76.6353 27.4178 76.0529 25.824 75.9527 23.5951L73.9548 23.6849ZM76.0966 29.8357C77.5014 31.3683 79.4491 32.08 81.7937 32.08V30.08C79.8717 30.08 78.5127 29.5117 77.5709 28.4843L76.0966 29.8357ZM81.7937 32.08C82.8183 32.08 83.8896 31.9804 85.0061 31.785L84.6614 29.815C83.6445 29.9929 82.6892 30.08 81.7937 30.08V32.08ZM85.0253 31.7815C86.1793 31.5563 87.199 31.2403 88.0685 30.8206L87.199 29.0194C86.5219 29.3463 85.6748 29.617 84.6422 29.8185L85.0253 31.7815ZM86.7192 30.3245L87.6392 32.4045L89.4683 31.5955L88.5483 29.5155L86.7192 30.3245ZM87.9048 31.2392C87.1449 31.8874 86.0263 32.4473 84.4853 32.8767L85.0222 34.8033C86.7346 34.3261 88.1493 33.6593 89.2027 32.7608L87.9048 31.2392ZM84.4853 32.8767C82.9397 33.3075 81.43 33.52 79.9538 33.52V35.52C81.6242 35.52 83.3145 35.2792 85.0222 34.8033L84.4853 32.8767ZM79.9538 33.52C76.7402 33.52 74.392 32.5978 72.7602 30.8728L71.3073 32.2472C73.4088 34.4688 76.3406 35.52 79.9538 35.52V33.52ZM72.7651 30.878C71.1427 29.138 70.2738 26.6882 70.2738 23.4H68.2738C68.2738 27.0451 69.2448 30.0353 71.3024 32.242L72.7651 30.878ZM70.2738 23.4C70.2738 21.2545 70.7339 19.3845 71.6291 17.7634L69.8784 16.7966C68.8003 18.7488 68.2738 20.9588 68.2738 23.4H70.2738ZM71.6321 17.7579C72.5322 16.1039 73.7754 14.8263 75.3727 13.9066L74.3748 12.1734C72.4521 13.2804 70.9487 14.8295 69.8754 16.8021L71.6321 17.7579ZM75.3727 13.9066C76.9657 12.9895 78.7904 12.52 80.8737 12.52V10.52C78.4771 10.52 76.3018 11.0639 74.3748 12.1734L75.3727 13.9066ZM79.7937 13.04C78.0896 13.04 76.6918 13.8 75.665 15.2118L77.2825 16.3882C77.9624 15.4534 78.7779 15.04 79.7937 15.04V13.04ZM75.6715 15.203C74.6606 16.5614 74.1238 18.4275 73.9565 20.6861L75.951 20.8339C76.1037 18.7725 76.5803 17.3319 77.276 16.397L75.6715 15.203ZM74.9538 21.76H83.4737V19.76H74.9538V21.76ZM84.4703 20.843C84.5243 20.1944 84.5537 19.6685 84.5537 19.28H82.5537C82.5537 19.5848 82.5298 20.0456 82.4772 20.677L84.4703 20.843ZM84.5537 19.28C84.5537 17.6656 84.2483 16.2693 83.449 15.2883L81.8985 16.5517C82.2725 17.0107 82.5537 17.8544 82.5537 19.28H84.5537ZM83.6204 15.5977C83.3467 14.7938 82.8758 14.1265 82.1804 13.6726C81.4953 13.2254 80.6766 13.04 79.7937 13.04V15.04C80.4042 15.04 80.8122 15.1679 81.0871 15.3474C81.3517 15.5201 81.5741 15.7929 81.7271 16.2423L83.6204 15.5977Z" fill="#29DA9A" fill-opacity="0.54" mask="url(#path-2-outside-1_0_1)"/>
<defs>
<clipPath id="clip0_0_1">
<rect width="8" height="8" fill="white" transform="translate(91 4)"/>
</clipPath>
</defs>
</svg>
