<svg width="101" height="101" viewBox="0 0 101 114" fill="none" xmlns="http://www.w3.org/2000/svg">
    <path
        d="M84.594 3.29016C84.3007 3.12004 83.9621 3.01303 83.6081 2.97853C83.2541 2.94403 82.8955 2.98309 82.5636 3.09228C79.061 4.34508 75.3662 5.1777 71.5877 5.56568C69.1987 5.02705 66.9178 4.19351 64.8198 3.09228C62.1119 1.68817 59.1193 0.715543 55.992 0.223145C50.9693 0.59652 46.0244 1.51092 41.279 2.94388C40.8419 3.06799 40.462 3.30415 40.1928 3.61915C39.9236 3.93415 39.7787 4.31215 39.7783 4.69999V41.7515C39.7783 42.2435 40.0108 42.7153 40.4247 43.0632C40.8386 43.4111 41.3999 43.6065 41.9853 43.6065C42.5706 43.6065 43.1319 43.4111 43.5458 43.0632C43.9597 42.7153 44.1922 42.2435 44.1922 41.7515V27.2821C47.8561 26.1676 51.6722 25.4446 55.5506 25.1303C58.0417 25.6454 60.4236 26.4796 62.6128 27.6037C65.173 28.9195 67.9781 29.8644 70.9109 30.3986H71.5877C75.8495 29.9463 80.0176 29.006 83.976 27.6037C84.392 27.4687 84.7495 27.2311 85.0017 26.9221C85.2538 26.613 85.3887 26.247 85.3885 25.8723V4.82366C85.4105 4.53338 85.35 4.24285 85.2118 3.97617C85.0737 3.70948 84.8619 3.47431 84.594 3.29016ZM81.1511 24.6356C78.0949 25.7013 74.8756 26.4007 71.5877 26.7132C69.1987 26.1746 66.9178 25.3411 64.8198 24.2398C62.1119 22.8357 59.1193 21.8631 55.992 21.3707H55.4035C51.6156 21.6573 47.8817 22.3215 44.2805 23.3494V6.03563C47.9444 4.92111 51.7604 4.19816 55.6389 3.88377C58.1299 4.39894 60.5119 5.23316 62.7011 6.35717C65.2613 7.67307 68.0664 8.61788 70.9992 9.15211C74.4517 9.03681 77.8553 8.42615 81.0629 7.34653L81.1511 24.6356Z"
        fill="#03EA958A" />
    <path
        d="M55.8762 90.2474L66.6982 77.1997M66.6982 77.1997L67.9813 75.6623C68.8075 74.6446 69.955 73.8261 71.3038 73.2925C72.6526 72.7589 74.153 72.5298 75.6481 72.6292C77.1431 72.7286 78.5778 73.1528 79.802 73.8575C81.0262 74.5621 81.9948 75.5213 82.6066 76.6346L95.8772 99.6592C98.6172 104.405 94.497 109.923 88.2246 109.923H13.2426C6.98556 109.923 2.86533 104.438 5.56955 99.6924L35.2597 47.5018C35.9225 46.2823 37.0105 45.2475 38.3891 44.5254C39.7677 43.8032 41.3765 43.4254 43.0165 43.4387C44.6565 43.452 46.2557 43.8557 47.6164 44.6C48.9771 45.3443 50.0395 46.3965 50.6723 47.6264L66.6982 77.1997Z"
        stroke="url(#paint0_linear_544_6)" stroke-width="8" stroke-linecap="round" stroke-linejoin="round" />
    <defs>
        <linearGradient id="paint0_linear_544_6" x1="50.7325" y1="43.4384" x2="50.7325" y2="109.923"
            gradientUnits="userSpaceOnUse">
            <stop stop-color="#03EA958A" />
            <stop offset="1" stop-color="#03EA958A" />
        </linearGradient>
    </defs>
</svg>